#Comment line ignore any data following # character 
#Hierarchical Translation and Rotation (.htr) file 
[Header]	
#Header keywords are followed by a single value 
FileType HTR		#Single word string
DataType HTRS		#Translation followed by rotation and scale data
FileVersion 1		#integer
NumSegments 64		#integer
NumFrames 3		#integer
DataFrameRate 30		#integer, data frame rate in this file
EulerRotationOrder ZYX
CalibrationUnits mm
RotationUnits Degrees
GlobalAxisofGravity Y
BoneLengthAxis Y
ScaleFactor 1.00
[SegmentNames&Hierarchy]
#CHILD	PARENT
Pinger_Root GLOBAL
Pelvis Pinger_Root
L_Hip Pelvis
R_Hip Pelvis
Rear_Leg01 Pelvis
Spine1 Pelvis
L_Leg01 L_Hip
L_Leg02 L_Leg01
L_Leg03 L_Leg02
L_Foot L_Leg03
L_Toe1_01 L_Foot
L_Toe2_01 L_Foot
L_Toe3_01 L_Foot
planeAlignerLeft L_Foot
L_Toe1_02 L_Toe1_01
L_Toe1_03 L_Toe1_02
L_Toe2_02 L_Toe2_01
L_Toe2_03 L_Toe2_02
L_Toe3_02 L_Toe3_01
L_Toe3_03 L_Toe3_02
planeLockWeightLeft planeAlignerLeft
R_Leg01 R_Hip
R_Leg02 R_Leg01
R_Leg03 R_Leg02
R_Foot R_Leg03
planeAlignerRight R_Foot
R_Toe1_01 R_Foot
R_Toe2_01 R_Foot
R_Toe3_01 R_Foot
planeLockWeightRight planeAlignerRight
R_Toe1_02 R_Toe1_01
R_Toe1_03 R_Toe1_02
R_Toe2_02 R_Toe2_01
R_Toe2_03 R_Toe2_02
R_Toe3_02 R_Toe3_01
R_Toe3_03 R_Toe3_02
Rear_Leg02 Rear_Leg01
Rear_Leg03 Rear_Leg02
Rear_Leg04 Rear_Leg03
Rear_Foot Rear_Leg04
planeAlignerCenter Rear_Foot
Rear_Toe1_01 Rear_Foot
Rear_Toe2_01 Rear_Foot
Rear_Toe3_01 Rear_Foot
planeLockWeightCenter planeAlignerCenter
Rear_Toe1_02 Rear_Toe1_01
Rear_Toe1_03 Rear_Toe1_02
Rear_Toe2_02 Rear_Toe2_01
Rear_Toe2_03 Rear_Toe2_02
Rear_Toe3_02 Rear_Toe3_01
Rear_Toe3_03 Rear_Toe3_02
Back_Bone Spine1
Head Spine1
Motor_Bone Back_Bone
Ping_Mechanism Back_Bone
BN_LookIK Head
bottomMouth Head
L_Mouth01 Head
L_mouthFront Head
mouthGun Head
R_Mouth01 Head
R_mouthFront Head
TopMouth Head
weapon_bone Head
[BasePosition]
#SegmentName Tx, Ty, Tz, Rx, Ry, Rz, BoneLength
Pinger_Root 0.000000 0.000000 0.000000 -90.000000 0.000000 0.000000 10.000000 
Pelvis 0.000000 0.000000 0.000000 0.000000 0.000000 0.000000 10.000000 
L_Hip 0.000000 0.000000 0.000000 0.000000 0.000000 0.000000 10.000000 
R_Hip 0.000000 0.000000 0.000000 0.000000 0.000000 0.000000 10.000000 
Rear_Leg01 0.000000 0.000000 0.000000 0.000000 0.000000 0.000000 10.000000 
Spine1 0.000000 0.000000 0.000000 0.000000 0.000000 0.000000 10.000000 
L_Leg01 0.000000 0.000000 0.000000 0.000000 0.000000 0.000000 10.000000 
L_Leg02 0.000000 0.000000 0.000000 0.000000 0.000000 0.000000 10.000000 
L_Leg03 0.000000 0.000000 0.000000 0.000000 0.000000 0.000000 10.000000 
L_Foot 0.000000 0.000000 0.000000 0.000000 0.000000 0.000000 10.000000 
L_Toe1_01 0.000000 0.000000 0.000000 0.000000 0.000000 0.000000 10.000000 
L_Toe2_01 0.000000 0.000000 0.000000 0.000000 0.000000 0.000000 10.000000 
L_Toe3_01 0.000000 0.000000 0.000000 0.000000 0.000000 0.000000 10.000000 
planeAlignerLeft 0.000000 0.000000 0.000000 0.000000 0.000000 0.000000 10.000000 
L_Toe1_02 0.000000 0.000000 0.000000 0.000000 0.000000 0.000000 10.000000 
L_Toe1_03 0.000000 0.000000 0.000000 0.000000 0.000000 0.000000 10.000000 
L_Toe2_02 0.000000 0.000000 0.000000 0.000000 0.000000 0.000000 10.000000 
L_Toe2_03 0.000000 0.000000 0.000000 0.000000 0.000000 0.000000 10.000000 
L_Toe3_02 0.000000 0.000000 0.000000 0.000000 0.000000 0.000000 10.000000 
L_Toe3_03 0.000000 0.000000 0.000000 0.000000 0.000000 0.000000 10.000000 
planeLockWeightLeft 0.000000 0.000000 0.000000 0.000000 0.000000 0.000000 10.000000 
R_Leg01 0.000000 0.000000 0.000000 0.000000 0.000000 0.000000 10.000000 
R_Leg02 0.000000 0.000000 0.000000 0.000000 0.000000 0.000000 10.000000 
R_Leg03 0.000000 0.000000 0.000000 0.000000 0.000000 0.000000 10.000000 
R_Foot 0.000000 0.000000 0.000000 0.000000 0.000000 0.000000 10.000000 
planeAlignerRight 0.000000 0.000000 0.000000 0.000000 0.000000 0.000000 10.000000 
R_Toe1_01 0.000000 0.000000 0.000000 0.000000 0.000000 0.000000 10.000000 
R_Toe2_01 0.000000 0.000000 0.000000 0.000000 0.000000 0.000000 10.000000 
R_Toe3_01 0.000000 0.000000 0.000000 0.000000 0.000000 0.000000 10.000000 
planeLockWeightRight 0.000000 0.000000 0.000000 0.000000 0.000000 0.000000 10.000000 
R_Toe1_02 0.000000 0.000000 0.000000 0.000000 0.000000 0.000000 10.000000 
R_Toe1_03 0.000000 0.000000 0.000000 0.000000 0.000000 0.000000 10.000000 
R_Toe2_02 0.000000 0.000000 0.000000 0.000000 0.000000 0.000000 10.000000 
R_Toe2_03 0.000000 0.000000 0.000000 0.000000 0.000000 0.000000 10.000000 
R_Toe3_02 0.000000 0.000000 0.000000 0.000000 0.000000 0.000000 10.000000 
R_Toe3_03 0.000000 0.000000 0.000000 0.000000 0.000000 0.000000 10.000000 
Rear_Leg02 0.000000 0.000000 0.000000 0.000000 0.000000 0.000000 10.000000 
Rear_Leg03 0.000000 0.000000 0.000000 0.000000 0.000000 0.000000 10.000000 
Rear_Leg04 0.000000 0.000000 0.000000 0.000000 0.000000 0.000000 10.000000 
Rear_Foot 0.000000 0.000000 0.000000 0.000000 0.000000 0.000000 10.000000 
planeAlignerCenter 0.000000 0.000000 0.000000 0.000000 0.000000 0.000000 10.000000 
Rear_Toe1_01 0.000000 0.000000 0.000000 0.000000 0.000000 0.000000 10.000000 
Rear_Toe2_01 0.000000 0.000000 0.000000 0.000000 0.000000 0.000000 10.000000 
Rear_Toe3_01 0.000000 0.000000 0.000000 0.000000 0.000000 0.000000 10.000000 
planeLockWeightCenter 0.000000 0.000000 0.000000 0.000000 0.000000 0.000000 10.000000 
Rear_Toe1_02 0.000000 0.000000 0.000000 0.000000 0.000000 0.000000 10.000000 
Rear_Toe1_03 0.000000 0.000000 0.000000 0.000000 0.000000 0.000000 10.000000 
Rear_Toe2_02 0.000000 0.000000 0.000000 0.000000 0.000000 0.000000 10.000000 
Rear_Toe2_03 0.000000 0.000000 0.000000 0.000000 0.000000 0.000000 10.000000 
Rear_Toe3_02 0.000000 0.000000 0.000000 0.000000 0.000000 0.000000 10.000000 
Rear_Toe3_03 0.000000 0.000000 0.000000 0.000000 0.000000 0.000000 10.000000 
Back_Bone 0.000000 0.000000 0.000000 0.000000 0.000000 0.000000 10.000000 
Head 0.000000 0.000000 0.000000 0.000000 0.000000 0.000000 10.000000 
Motor_Bone 0.000000 0.000000 0.000000 0.000000 0.000000 0.000000 10.000000 
Ping_Mechanism 0.000000 0.000000 0.000000 0.000000 0.000000 0.000000 10.000000 
BN_LookIK 0.000000 0.000000 0.000000 0.000000 0.000000 0.000000 10.000000 
bottomMouth 0.000000 0.000000 0.000000 0.000000 0.000000 0.000000 10.000000 
L_Mouth01 0.000000 0.000000 0.000000 0.000000 0.000000 0.000000 10.000000 
L_mouthFront 0.000000 0.000000 0.000000 0.000000 0.000000 0.000000 10.000000 
mouthGun 0.000000 0.000000 0.000000 0.000000 0.000000 0.000000 10.000000 
R_Mouth01 0.000000 0.000000 0.000000 0.000000 0.000000 0.000000 10.000000 
R_mouthFront 0.000000 0.000000 0.000000 0.000000 0.000000 0.000000 10.000000 
TopMouth 0.000000 0.000000 0.000000 0.000000 0.000000 0.000000 10.000000 
weapon_bone 0.000000 0.000000 0.000000 0.000000 0.000000 0.000000 10.000000 
#Beginning of Data. Separated by tabs
#Fr	Tx	Ty	Tz	Rx	Ry	Rz	SF
[Pinger_Root]
80 0.000000 0.000000 0.000000 -0.000075 -0.000000 -0.000020 0.000000
81 0.000000 0.000000 0.000000 -0.000075 -0.000000 -0.000020 0.000000
82 0.000000 0.000000 0.000000 -0.000075 -0.000000 -0.000020 0.000000
[Pelvis]
80 -1707.029663 11429.470703 -2712.688232 -101.931534 -77.465508 92.687454 11870.359375
81 -1703.830933 11429.386719 -2666.184082 -102.183678 -77.795395 92.939041 11859.277344
82 -1694.524658 11429.015625 -2623.889404 -102.193527 -77.907135 92.932724 11848.148438
[L_Hip]
80 5.766392 125.831482 872.656799 -178.253311 -81.787758 87.381340 881.701050
81 5.766392 125.831482 872.656799 -178.253342 -81.787758 87.381340 881.701050
82 5.766392 125.831482 872.656799 -178.253296 -81.787666 87.381203 881.701050
[R_Hip]
80 5.765438 125.836372 -872.654907 -1.746690 81.787712 87.381248 881.699829
81 5.765438 125.836372 -872.654907 -1.746678 81.787712 87.381248 881.699829
82 5.765438 125.836372 -872.654907 -1.746701 81.787666 87.381203 881.699829
[Rear_Leg01]
80 -192.298416 -925.602966 -0.001907 159.367111 20.990021 -120.854103 945.367432
81 -192.298416 -925.602966 -0.001907 159.272812 20.846167 -121.098022 945.367432
82 -192.298416 -925.602966 -0.001907 159.179260 20.701944 -121.341454 945.367432
[Spine1]
80 290.604584 5.007505 0.000477 10.228071 -2.145823 16.264891 290.647736
81 290.604584 5.007505 0.000477 10.228071 -2.145823 16.264891 290.647736
82 290.604584 5.007505 0.000477 10.228071 -2.145823 16.264891 290.647736
[L_Leg01]
80 761.932007 -0.002384 -0.069261 38.047932 -59.048248 -25.731417 761.932068
81 761.932007 -0.002384 -0.069261 40.600590 -57.904835 -29.083401 761.932068
82 761.932007 -0.002384 -0.069261 42.869442 -56.786392 -31.926371 761.932068
[L_Leg02]
80 1441.140503 -0.000954 -0.000715 3.477640 -0.988833 -152.707138 1441.140503
81 1441.140503 -0.000954 -0.000715 3.238227 -0.923257 -150.538635 1441.140503
82 1441.140503 -0.000954 -0.000715 3.001385 -0.848642 -148.369675 1441.140503
[L_Leg03]
80 1686.963989 -0.000715 -0.000954 0.020755 -0.007900 104.354408 1686.963989
81 1686.963989 -0.000715 -0.000954 0.022279 -0.009835 104.260490 1686.963989
82 1686.963989 -0.000715 -0.000954 0.021512 -0.008878 104.363731 1686.963989
[L_Foot]
80 3041.570068 -30.715107 11.297464 -9.033813 11.461216 42.038177 3041.746094
81 3041.570068 -30.715107 11.297464 -8.866034 11.661551 41.731003 3041.746094
82 3041.570068 -30.715107 11.297464 -8.969841 11.784244 41.299011 3041.746094
[L_Toe1_01]
80 -188.216690 -224.732346 -21.137953 88.682343 -6.717995 -155.918091 293.899567
81 -188.216690 -224.732346 -21.137953 88.677742 -6.695434 -156.016815 293.899567
82 -188.216690 -224.732346 -21.137953 88.673126 -6.672884 -156.115555 293.899567
[L_Toe2_01]
80 200.746536 -219.926590 148.838394 -76.375511 -23.818298 -45.208420 332.896027
81 200.746536 -219.926590 148.838394 -76.393356 -23.748741 -45.189568 332.896027
82 200.746536 -219.926590 148.838394 -76.411194 -23.679178 -45.170757 332.896027
[L_Toe3_01]
80 188.832520 -219.859131 -191.078659 -104.005394 13.910400 -42.125622 347.140900
81 188.832520 -219.859131 -191.078659 -103.969910 13.939747 -42.158134 347.140900
82 188.832520 -219.859131 -191.078659 -103.934448 13.969114 -42.190636 347.140900
[planeAlignerLeft]
80 0.812531 -811.448792 -0.314951 0.000000 -90.000000 -90.001900 811.449280
81 0.812531 -811.448792 -0.314951 0.000000 -90.000000 -90.001900 811.449280
82 0.812531 -811.448792 -0.314951 0.000000 -90.000000 -90.001900 811.449280
[L_Toe1_02]
80 413.761139 0.000477 0.000000 0.001386 -25.668636 0.001386 413.761139
81 413.761139 0.000477 0.000000 0.001386 -25.702688 0.001386 413.761139
82 413.761139 0.000477 0.000000 0.001386 -25.736752 0.001386 413.761139
[L_Toe1_03]
80 464.317322 0.000358 -0.000089 0.003071 45.070072 0.003071 464.317322
81 464.317322 0.000358 -0.000089 0.003090 45.356541 0.003090 464.317322
82 464.317322 0.000358 -0.000089 0.003125 45.876957 0.003125 464.317322
[L_Toe2_02]
80 342.235809 -0.000477 0.000238 0.004687 -80.415611 0.004687 342.235809
81 342.235809 -0.000477 0.000238 0.004687 -80.402634 0.004687 342.235809
82 342.235809 -0.000477 0.000238 0.004687 -80.389694 0.004687 342.235809
[L_Toe2_03]
80 420.210846 -0.000715 0.000000 -179.999527 60.728558 -179.995926 420.210846
81 420.210846 -0.000715 0.000000 -179.999527 60.785892 -179.995926 420.210846
82 420.210846 -0.000715 0.000000 -179.999527 60.843182 -179.995911 420.210846
[L_Toe3_02]
80 329.270111 0.000954 0.000000 0.004676 -84.571907 0.004676 329.270111
81 329.270111 0.000954 0.000000 0.004676 -84.566238 0.004676 329.270111
82 329.270111 0.000954 0.000000 0.004676 -84.560623 0.004676 329.270111
[L_Toe3_03]
80 439.137451 -0.001907 0.000954 179.992889 49.316219 -179.999649 439.137451
81 439.137451 -0.001907 0.000954 179.992889 49.380154 -179.999649 439.137451
82 439.137451 -0.001907 0.000954 179.992874 49.654606 -179.999680 439.137451
[planeLockWeightLeft]
80 -0.000954 0.000238 -0.000305 -0.011826 -0.004376 0.005620 0.001029
81 -0.000954 0.000238 -0.000305 -0.011826 -0.004376 0.005620 0.001029
82 -0.000954 0.000238 -0.000305 -0.011826 -0.004376 0.005620 0.001029
[R_Leg01]
80 761.455627 -0.001907 -0.000358 93.824066 -18.043716 60.539265 761.455688
81 761.455627 -0.001907 -0.000358 93.682442 -17.702341 61.032761 761.455688
82 761.455627 -0.001907 -0.000358 93.614571 -17.633476 61.533222 761.455688
[R_Leg02]
80 1441.140625 0.000000 -0.000238 -0.801770 -0.157734 -141.677338 1441.140625
81 1441.140625 0.000000 -0.000238 -0.753796 -0.137466 -139.924149 1441.140625
82 1441.140625 0.000000 -0.000238 -0.714223 -0.117788 -138.589645 1441.140625
[R_Leg03]
80 1686.963989 0.000954 0.001431 0.063822 -0.036719 127.926880 1686.963989
81 1686.963989 0.000954 0.001431 0.061163 -0.034021 127.054688 1686.963989
82 1686.963989 0.000954 0.001431 0.058463 -0.031363 126.182281 1686.963989
[R_Foot]
80 3041.560059 -30.531288 -11.204481 31.556561 -22.290762 83.541557 3041.734131
81 3041.560059 -30.531288 -11.204481 31.095829 -22.324051 83.113197 3041.734131
82 3041.560059 -30.531288 -11.204481 30.635277 -22.360533 82.685036 3041.734131
[planeAlignerRight]
80 -0.635147 -812.270569 -0.364304 0.000000 -89.960434 -90.005180 812.270874
81 -0.635147 -812.270569 -0.364304 0.000000 -89.960434 -90.005180 812.270874
82 -0.635147 -812.270569 -0.364304 0.000000 -89.960434 -90.005180 812.270874
[R_Toe1_01]
80 -188.383347 -224.864899 21.052242 90.831268 1.956994 -159.536560 294.101532
81 -188.383347 -224.864899 21.052242 90.841179 1.958223 -159.514572 294.101532
82 -188.383347 -224.864899 21.052242 90.851089 1.959447 -159.492615 294.101532
[R_Toe2_01]
80 200.637817 -220.002121 -148.787384 -102.966286 11.396353 -50.129719 332.857574
81 200.637817 -220.002121 -148.787384 -102.949577 11.396728 -50.150547 332.857574
82 200.637817 -220.002121 -148.787384 -102.932899 11.397105 -50.171391 332.857574
[R_Toe3_01]
80 188.606735 -220.092957 191.126343 -72.840240 -14.088103 -52.023663 347.192566
81 188.606735 -220.092957 191.126343 -72.842384 -14.084254 -52.044056 347.192566
82 188.606735 -220.092957 191.126343 -72.844543 -14.080412 -52.064453 347.192566
[planeLockWeightRight]
80 -0.000477 0.000000 0.000000 -0.011823 -0.004379 -0.000027 0.000477
81 -0.000477 0.000000 0.000000 -0.011823 -0.004379 -0.000027 0.000477
82 -0.000477 0.000000 0.000000 -0.011823 -0.004379 -0.000027 0.000477
[R_Toe1_02]
80 413.762085 0.000477 -0.000119 0.001404 -23.394056 0.001404 413.762085
81 413.762085 0.000477 -0.000119 0.001404 -23.412670 0.001404 413.762085
82 413.762085 0.000477 -0.000119 0.001404 -23.431282 0.001404 413.762085
[R_Toe1_03]
80 464.317810 0.000000 0.001088 0.010076 76.622810 0.010076 464.317810
81 464.317810 0.000000 0.001088 0.010065 76.607521 0.010065 464.317810
82 464.317810 0.000000 0.001088 0.010053 76.592255 0.010053 464.317810
[R_Toe2_02]
80 342.234741 -0.000954 0.000238 -0.002342 -75.467094 -0.002342 342.234741
81 342.234741 -0.000954 0.000238 -0.002342 -75.446991 -0.002342 342.234741
82 342.234741 -0.000954 0.000238 -0.002342 -75.426910 -0.002342 342.234741
[R_Toe2_03]
80 420.210846 0.000715 -0.000268 -179.983932 85.400612 -179.987427 420.210846
81 420.210846 0.000715 -0.000268 -179.983871 85.418839 -179.987366 420.210846
82 420.210846 0.000715 -0.000268 -179.983826 85.437256 -179.987320 420.210846
[R_Toe3_02]
80 329.270355 -0.000477 -0.000954 0.001179 -79.393700 0.001179 329.270355
81 329.270355 -0.000477 -0.000954 0.001179 -79.362831 0.001179 329.270355
82 329.270355 -0.000477 -0.000954 0.001179 -79.331886 0.001179 329.270355
[R_Toe3_03]
80 439.137939 0.000238 0.001431 -179.992584 82.808571 -179.989090 439.137939
81 439.137939 0.000238 0.001431 -179.992569 82.825531 -179.989059 439.137939
82 439.137939 0.000238 0.001431 -179.992554 82.842590 -179.989044 439.137939
[Rear_Leg02]
80 1162.777710 -0.029802 0.005960 18.233932 -22.419369 -88.257385 1162.777710
81 1162.777710 -0.029802 0.005960 17.748648 -22.680168 -87.343887 1162.777710
82 1162.777710 -0.029802 0.005960 17.257929 -22.933800 -86.426155 1162.777710
[Rear_Leg03]
80 607.192505 -0.013351 -0.073195 0.010254 -0.005570 73.376503 607.192505
81 607.192505 -0.013351 -0.073195 0.010272 -0.005534 72.983322 607.192505
82 607.192505 -0.013351 -0.073195 0.010288 -0.005506 72.663208 607.192505
[Rear_Leg04]
80 995.874512 -0.020504 -0.011921 -0.041859 -0.014725 78.599358 995.874573
81 995.874512 -0.020504 -0.011921 -0.041756 -0.015029 77.771713 995.874573
82 995.874512 -0.020504 -0.011921 -0.041648 -0.015331 76.943939 995.874573
[Rear_Foot]
80 3096.176270 -0.067472 -0.041425 -134.510239 54.685677 49.191067 3096.176270
81 3096.176270 -0.067472 -0.041425 -134.147705 54.930744 49.310081 3096.176270
82 3096.176270 -0.067472 -0.041425 -134.102341 54.960258 49.075142 3096.176270
[planeAlignerCenter]
80 0.350077 0.966311 -838.790894 0.000009 0.000003 -179.999985 838.791565
81 0.350077 0.966311 -838.790894 0.000009 0.000003 -179.999985 838.791565
82 0.350077 0.966311 -838.790894 0.000009 0.000003 -179.999985 838.791565
[Rear_Toe1_01]
80 0.653352 83.966492 -371.173737 -0.141677 15.574959 89.406174 380.553192
81 0.653352 83.966492 -371.173737 -0.166559 16.102695 89.340157 380.553192
82 0.653352 83.966492 -371.173737 -0.192140 16.630365 89.273720 380.553192
[Rear_Toe2_01]
80 178.200760 -294.826019 -362.060547 0.568340 41.804935 -70.084641 499.765686
81 178.200760 -294.826019 -362.060547 0.617943 42.282162 -69.975273 499.765686
82 178.200760 -294.826019 -362.060547 0.669176 42.759308 -69.864479 499.765686
[Rear_Toe3_01]
80 -153.359680 -308.780914 -362.060852 -0.156175 41.756210 -110.520905 499.952881
81 -153.359680 -308.780914 -362.060852 -0.164074 42.236523 -110.539345 499.952881
82 -153.359680 -308.780914 -362.060852 -0.172246 42.716862 -110.558037 499.952881
[planeLockWeightCenter]
80 -0.000062 0.000238 0.000000 -0.011814 -0.004373 -0.000015 0.000246
81 -0.000062 0.000238 0.000000 -0.011814 -0.004373 -0.000015 0.000246
82 -0.000062 0.000238 0.000000 -0.011814 -0.004373 -0.000015 0.000246
[Rear_Toe1_02]
80 379.707825 0.194073 0.000477 -0.002641 -33.178593 -0.002641 379.707855
81 379.707825 0.194073 0.000477 -0.002640 -33.251575 -0.002640 379.707855
82 379.707825 0.194073 0.000477 -0.002639 -33.324547 -0.002639 379.707855
[Rear_Toe1_03]
80 500.129700 0.165701 0.000119 -0.009287 84.030472 -0.012788 500.129761
81 500.129700 0.165701 0.000119 0.005875 83.131447 0.004123 500.129761
82 500.129700 0.165701 0.000119 0.017327 82.232468 0.017327 500.129761
[Rear_Toe2_02]
80 340.494507 0.000238 -0.000954 0.001175 -84.974686 0.001175 340.494507
81 340.494507 0.000238 -0.000954 0.001175 -84.954575 0.001175 340.494507
82 340.494507 0.000238 -0.000954 0.001175 -84.934494 0.001175 340.494507
[Rear_Toe2_03]
80 433.103577 0.000000 0.000238 179.984665 81.225327 179.984665 433.103546
81 433.103577 0.000000 0.000238 179.984787 81.153648 179.984787 433.103546
82 433.103577 0.000000 0.000238 179.984497 81.316597 179.984497 433.103546
[Rear_Toe3_02]
80 340.494141 -0.000358 -0.000477 0.001175 -85.445038 0.001175 340.494171
81 340.494141 -0.000358 -0.000477 0.001175 -85.458473 0.001175 340.494171
82 340.494141 -0.000358 -0.000477 0.001175 -85.471992 0.001175 340.494171
[Rear_Toe3_03]
80 433.103577 0.001431 -0.000238 -179.995117 80.064178 -179.991608 433.103546
81 433.103577 0.001431 -0.000238 -179.995224 79.896370 -179.991714 433.103546
82 433.103577 0.001431 -0.000238 -179.995178 79.993172 -179.991653 433.103546
[Back_Bone]
80 1312.175781 -701.934692 0.000954 -2.876407 1.427330 -89.536156 1488.125488
81 1312.175781 -701.934692 0.000954 -2.877348 1.426753 -89.327728 1488.125488
82 1312.175781 -701.934692 0.000954 -2.878291 1.426179 -89.119308 1488.125488
[Head]
80 1406.159424 809.709290 0.001431 -1.529441 2.460027 2.902872 1622.625488
81 1406.159424 809.709290 0.001431 -1.529441 2.460027 2.902872 1622.625488
82 1406.159424 809.709290 0.001431 -1.529441 2.460027 2.902872 1622.625488
[Motor_Bone]
80 1158.364380 -417.834747 0.000477 -2.687934 0.131929 -105.851517 1231.419434
81 1158.364380 -417.834747 0.000477 -2.687934 0.131929 -105.851517 1231.419434
82 1158.364380 -417.834747 0.000477 -2.687934 0.131929 -105.851517 1231.419434
[Ping_Mechanism]
80 1275.539185 -458.059357 -0.887248 0.000103 -0.000053 82.120995 1355.293091
81 1275.488281 -458.130768 -0.935873 0.000103 -0.000053 82.120995 1355.269287
82 1275.437256 -458.202209 -0.984497 0.000103 -0.000053 82.120995 1355.245483
[BN_LookIK]
80 193.241119 1380.371704 -0.002861 0.000000 89.965736 -31.038179 1393.832153
81 193.241119 1380.371704 -0.002861 0.000000 89.965736 -31.038179 1393.832153
82 193.241119 1380.371704 -0.002861 0.000000 89.965736 -31.038179 1393.832153
[bottomMouth]
80 -435.092926 615.759399 -0.000954 -0.000022 0.000016 73.527184 753.966492
81 -435.092926 615.759399 -0.000954 -0.000022 0.000016 73.527184 753.966492
82 -435.092926 615.759399 -0.000954 -0.000022 0.000016 73.527184 753.966492
[L_Mouth01]
80 554.440979 7.658243 838.222046 150.204178 23.759130 109.605339 1005.027161
81 554.440979 7.658243 838.222046 150.204178 23.759130 109.605339 1005.027161
82 554.440979 7.658243 838.222046 150.204178 23.759130 109.605339 1005.027161
[L_mouthFront]
80 551.629089 934.514771 339.150421 0.000081 2.804060 79.119301 1136.941284
81 551.629089 934.514771 339.150421 0.000081 2.804060 79.119301 1136.941284
82 551.629089 934.514771 339.150421 0.000081 2.804060 79.119301 1136.941284
[mouthGun]
80 55.332661 1627.420898 0.000000 0.000023 0.000009 -11.038128 1628.361328
81 55.332661 1627.420898 0.000000 0.000023 0.000009 -11.038128 1628.361328
82 55.332661 1627.420898 0.000000 0.000023 0.000009 -11.038128 1628.361328
[R_Mouth01]
80 554.442383 7.659197 -838.223938 29.795891 -23.759109 109.605331 1005.029541
81 554.442383 7.659197 -838.223938 29.795891 -23.759109 109.605331 1005.029541
82 554.442383 7.659197 -838.223938 29.795891 -23.759109 109.605331 1005.029541
[R_mouthFront]
80 551.629089 934.514282 -339.151367 0.000029 -2.803930 79.119133 1136.941162
81 551.629089 934.514282 -339.151367 0.000029 -2.803930 79.119133 1136.941162
82 551.629089 934.514282 -339.151367 0.000029 -2.803930 79.119133 1136.941162
[TopMouth]
80 461.269867 -56.106091 -0.008583 -0.000059 -0.000268 92.025169 464.669525
81 461.269867 -56.106091 -0.008583 -0.000059 -0.000268 92.025169 464.669525
82 461.269867 -56.106091 -0.008583 -0.000059 -0.000268 92.025169 464.669525
[weapon_bone]
80 -987.239868 1448.372803 0.001431 0.000000 89.965736 -31.038221 1752.833740
81 -987.239868 1448.372803 0.001431 0.000000 89.965736 -31.038221 1752.833740
82 -987.239868 1448.372803 0.001431 0.000000 89.965736 -31.038221 1752.833740
